<svg xmlns="http://www.w3.org/2000/svg" viewBox="0 0 512 512" fill="none">
  <defs>
    <linearGradient id="bg" x1="0" y1="0" x2="1" y2="1">
      <stop offset="0%" stop-color="#2A0E2A"/>
      <stop offset="55%" stop-color="#9D174D"/>
      <stop offset="100%" stop-color="#F472B6"/>
    </linearGradient>
    <radialGradient id="glow" cx="0.2" cy="0.2" r="0.9">
      <stop offset="0%" stop-color="#FBCFE8" stop-opacity="0.9"/>
      <stop offset="60%" stop-color="#F472B6" stop-opacity="0"/>
    </radialGradient>
    <linearGradient id="ring" x1="0" y1="0" x2="1" y2="1">
      <stop offset="0%" stop-color="#F9A8D4"/>
      <stop offset="100%" stop-color="#BE185D"/>
    </linearGradient>
  </defs>
  <rect width="512" height="512" rx="256" fill="url(#bg)"/>
  <rect width="512" height="512" rx="256" fill="url(#glow)"/>
  <circle cx="256" cy="256" r="238" stroke="url(#ring)" stroke-width="8"/>
  <path d="M160 224c0-58 47-105 105-105s105 47 105 105v20c-10-7-26-14-46-18-24-5-52 1-74 16-22-15-50-21-74-16-20 4-36 11-46 18v-20z" fill="#FCE7F3"/>
  <circle cx="256" cy="210" r="72" fill="#FCE7F3"/>
  <path d="M122 442c0-72 58-130 130-130h8c72 0 130 58 130 130" fill="#FCE7F3"/>
  <path d="M206 186c14-18 36-28 60-28s46 10 60 28" stroke="#F472B6" stroke-width="10" stroke-linecap="round"/>
  <circle cx="220" cy="206" r="10" fill="#2A0E2A"/>
  <circle cx="292" cy="206" r="10" fill="#2A0E2A"/>
</svg>
